<?xml version="1.0" standalone="no"?>
<!DOCTYPE svg PUBLIC "-//W3C//DTD SVG 1.1//EN" "http://www.w3.org/Graphics/SVG/1.1/DTD/svg11.dtd">
<svg width="100%" height="100%" viewBox="0 0 1440 500" version="1.1" xmlns="http://www.w3.org/2000/svg" xmlns:xlink="http://www.w3.org/1999/xlink" xml:space="preserve" style="fill-rule:evenodd;clip-rule:evenodd;stroke-linejoin:round;stroke-miterlimit:1.41421;">
    <g transform="matrix(1,0,0,1,-41.8485,162.344)">
        <g>
            <g>
                <path d="M303.174,110.054L274.474,110.054L274.474,19.054C274.474,-1.946 273.482,-16.238 271.499,-23.821C269.515,-31.405 266.599,-37.821 262.749,-43.071C258.899,-48.321 253.999,-52.23 248.049,-54.796C242.099,-57.363 234.865,-58.646 226.349,-58.646C217.832,-58.646 209.49,-56.546 201.324,-52.346C193.157,-48.146 186.157,-42.313 180.324,-34.846C174.49,-27.38 170.465,-19.446 168.249,-11.046C166.032,-2.646 164.924,14.154 164.924,39.354L164.924,110.054L135.874,110.054L135.874,-80.696L164.924,-80.696L164.924,-51.996C183.824,-74.396 206.224,-85.596 232.124,-85.596C245.89,-85.596 258.374,-82.038 269.574,-74.921C280.774,-67.805 289.174,-58.005 294.774,-45.521C300.374,-33.038 303.174,-13.846 303.174,12.054L303.174,110.054Z" style="fill:rgb(230,230,232);fill-rule:nonzero;"/>
                <path d="M553.424,110.054L525.074,110.054L525.074,82.054C504.307,104.92 480.39,116.354 453.324,116.354C426.257,116.354 403.099,106.379 383.849,86.429C364.599,66.479 354.974,42.679 354.974,15.029C354.974,-12.621 364.657,-36.305 384.024,-56.021C403.39,-75.738 427.015,-85.596 454.899,-85.596C482.782,-85.596 506.174,-74.28 525.074,-51.646L525.074,-80.696L553.424,-80.696L553.424,110.054ZM455.424,89.404C474.79,89.404 491.474,82.404 505.474,68.404C519.474,54.404 526.474,36.962 526.474,16.079C526.474,-4.805 519.59,-22.305 505.824,-36.421C492.057,-50.538 475.199,-57.596 455.249,-57.596C435.299,-57.596 418.44,-50.305 404.674,-35.721C390.907,-21.138 384.024,-3.93 384.024,15.904C384.024,35.737 391.024,52.945 405.024,67.529C419.024,82.112 435.824,89.404 455.424,89.404Z" style="fill:rgb(230,230,232);fill-rule:nonzero;"/>
                <path d="M646.524,-52.696C666.357,-74.63 690.157,-85.596 717.924,-85.596C745.69,-85.596 769.082,-75.738 788.099,-56.021C807.115,-36.305 816.624,-12.563 816.624,15.204C816.624,42.97 806.94,66.77 787.574,86.604C768.207,106.437 744.815,116.354 717.399,116.354C689.982,116.354 666.357,104.454 646.524,80.654L646.524,110.054L618.174,110.054L618.174,-152.446L646.524,-152.446L646.524,-52.696ZM716.174,88.354C736.007,88.354 752.865,81.004 766.749,66.304C780.632,51.604 787.574,34.395 787.574,14.679C787.574,-5.038 780.807,-22.246 767.274,-36.946C753.74,-51.646 736.824,-58.996 716.524,-58.996C696.224,-58.996 679.249,-52.113 665.599,-38.346C651.949,-24.58 645.124,-7.255 645.124,13.629C645.124,34.512 652.007,52.187 665.774,66.654C679.54,81.12 696.34,88.354 716.174,88.354Z" style="fill:rgb(230,230,232);fill-rule:nonzero;"/>
                <path d="M1057.07,19.754L889.774,19.754C890.94,40.754 897.999,57.612 910.949,70.329C923.899,83.045 939.357,89.404 957.324,89.404C987.89,89.404 1011.22,74.354 1027.32,44.254L1051.82,56.854C1040.86,77.154 1027.91,92.145 1012.97,101.829C998.04,111.512 980.19,116.354 959.424,116.354C930.724,116.354 907.04,106.495 888.374,86.779C869.707,67.062 860.374,43.32 860.374,15.554C860.374,-12.213 869.765,-36.013 888.549,-55.846C907.332,-75.68 930.607,-85.596 958.374,-85.596C986.14,-85.596 1009.36,-76.205 1028.02,-57.421C1046.69,-38.638 1056.37,-12.913 1057.07,19.754ZM1024.87,-5.796C1021.37,-22.13 1013.44,-34.846 1001.07,-43.946C988.707,-53.046 974.474,-57.596 958.374,-57.596C925.707,-57.596 904.007,-40.33 893.274,-5.796L1024.87,-5.796Z" style="fill:rgb(230,230,232);fill-rule:nonzero;"/>
                <path d="M1298.57,19.754L1131.27,19.754C1132.44,40.754 1139.5,57.612 1152.45,70.329C1165.4,83.045 1180.86,89.404 1198.82,89.404C1229.39,89.404 1252.72,74.354 1268.82,44.254L1293.32,56.854C1282.36,77.154 1269.41,92.145 1254.47,101.829C1239.54,111.512 1221.69,116.354 1200.92,116.354C1172.22,116.354 1148.54,106.495 1129.87,86.779C1111.21,67.062 1101.87,43.32 1101.87,15.554C1101.87,-12.213 1111.27,-36.013 1130.05,-55.846C1148.83,-75.68 1172.11,-85.596 1199.87,-85.596C1227.64,-85.596 1250.86,-76.205 1269.52,-57.421C1288.19,-38.638 1297.87,-12.913 1298.57,19.754ZM1266.37,-5.796C1262.87,-22.13 1254.94,-34.846 1242.57,-43.946C1230.21,-53.046 1215.97,-57.596 1199.87,-57.596C1167.21,-57.596 1145.51,-40.33 1134.77,-5.796L1266.37,-5.796Z" style="fill:rgb(230,230,232);fill-rule:nonzero;"/>
                <rect x="1348.62" y="-152.446" width="28.7" height="262.5" style="fill:rgb(230,230,232);fill-rule:nonzero;"/>
            </g>
        </g>
    </g>
</svg>
